<?xml version="1.0" standalone="no"?>
<!DOCTYPE svg PUBLIC "-//W3C//DTD SVG 20010904//EN"
 "http://www.w3.org/TR/2001/REC-SVG-20010904/DTD/svg10.dtd">
<svg version="1.0" xmlns="http://www.w3.org/2000/svg"
 width="500.000000pt" height="500.000000pt" viewBox="0 0 500.000000 500.000000"
 preserveAspectRatio="xMidYMid meet">

<g transform="translate(0.000000,500.000000) scale(0.100000,-0.100000)"
fill="#000000" stroke="none">
<path d="M1623 4357 c-106 -110 -163 -252 -163 -406 l0 -85 -28 27 c-52 50
-57 23 -12 -62 37 -68 157 -170 136 -115 -15 38 -26 171 -20 234 8 78 47 209
73 241 l18 22 25 -55 c42 -91 126 -208 215 -296 95 -95 95 -91 10 -168 -53
-49 -169 -118 -187 -112 -5 2 13 38 42 81 l51 77 -20 23 c-33 37 -92 141 -117
207 -15 42 -26 58 -31 50 -16 -26 -10 -183 9 -256 l19 -71 -30 -44 c-75 -109
-133 -275 -133 -382 l0 -60 23 33 c12 18 33 40 46 49 24 15 24 15 17 -9 -14
-49 -18 -146 -7 -186 10 -37 69 -139 77 -132 2 2 5 22 8 43 2 22 5 42 5 44 1
2 14 -14 30 -36 56 -77 163 -138 263 -149 l58 -7 -6 -56 -6 -56 36 40 c39 44
43 38 27 -42 -11 -55 2 -56 51 -5 68 69 86 157 48 239 l-19 43 -47 -25 c-45
-24 -74 -31 -74 -19 0 3 5 15 11 26 10 18 9 20 -5 15 -33 -13 -141 -18 -156
-7 -13 9 -11 14 13 35 l28 25 -33 14 c-41 17 -93 71 -108 111 l-11 30 28 -27
c39 -38 93 -58 155 -58 43 0 49 2 36 13 -8 6 -18 20 -21 29 -8 21 9 34 17 13
7 -20 45 -19 68 2 17 15 18 15 18 -6 0 -13 -12 -28 -30 -40 l-31 -18 38 -6
c21 -3 46 -8 56 -12 26 -11 22 31 -9 92 -32 66 -98 103 -182 103 -58 0 -58 -1
-36 -54 7 -18 5 -18 -24 3 -42 30 -82 99 -82 142 0 37 39 108 81 146 65 58
204 114 344 138 52 9 41 -1 -53 -46 l-77 -37 65 -9 65 -9 -55 -18 c-59 -20
-174 -95 -189 -124 -8 -15 -1 -22 45 -44 30 -15 54 -24 54 -22 0 3 -7 18 -15
34 -19 36 -14 37 41 5 49 -29 75 -68 98 -146 19 -68 90 -159 153 -196 71 -41
73 -48 73 -222 0 -125 -3 -158 -15 -172 -15 -15 -13 -17 22 -24 45 -8 84 -28
103 -50 13 -15 10 -16 -31 -10 -26 4 -64 2 -87 -4 -48 -13 -68 -34 -24 -25 59
12 154 -33 182 -87 10 -17 9 -18 -32 -3 -57 21 -153 21 -203 0 -87 -37 -108
-91 -60 -156 30 -41 32 -66 6 -80 -28 -15 -112 -12 -141 5 -33 19 -40 18 -40
-2 0 -31 36 -79 70 -93 26 -11 44 -11 89 -2 64 13 136 15 166 3 18 -7 17 -10
-15 -30 -26 -17 -46 -21 -77 -18 -51 5 -47 -8 11 -34 77 -35 167 -17 217 43
18 21 42 36 70 42 40 10 47 16 73 68 24 50 29 73 34 168 3 79 2 110 -7 110 -6
0 -11 -6 -11 -13 0 -12 -50 -67 -61 -67 -2 0 -5 35 -6 78 -1 53 -9 101 -27
157 -28 82 -47 235 -30 235 5 0 43 -43 83 -95 41 -52 76 -95 79 -95 4 0 -6 73
-15 105 -5 17 -1 16 31 -8 l36 -28 0 45 c0 44 1 45 38 51 84 14 99 19 157 47
33 17 82 53 109 82 l49 51 -6 -48 c-14 -105 -102 -236 -199 -298 l-33 -21 44
6 c24 4 68 15 97 25 30 10 54 16 54 13 0 -2 -10 -17 -21 -34 -14 -19 -50 -42
-97 -64 -139 -63 -181 -116 -182 -224 -1 -104 -39 -197 -104 -253 -12 -10 -42
-29 -67 -42 l-46 -24 -6 -74 c-6 -91 -26 -140 -77 -192 -47 -48 -70 -100 -70
-157 l1 -43 82 89 c45 49 145 143 222 211 241 211 326 320 405 523 l19 47 1
-68 c0 -113 -48 -285 -107 -379 -47 -76 -18 -79 53 -5 166 171 263 405 267
644 1 62 4 113 7 113 3 0 23 -29 45 -65 50 -81 57 -72 57 79 0 119 -22 227
-62 306 -11 22 -20 42 -20 46 0 4 20 4 45 1 42 -6 45 -5 45 17 0 82 -80 290
-157 408 l-44 68 30 37 c53 67 81 158 72 236 -1 4 -13 -7 -29 -24 l-27 -31 0
99 c0 140 -36 239 -125 346 -41 49 -117 114 -124 106 -2 -2 -8 -25 -15 -50
-36 -130 -160 -285 -291 -361 -72 -43 -95 -45 -184 -21 -89 24 -267 23 -384
-2 l-94 -19 -44 23 c-63 34 -170 126 -227 196 -27 33 -67 99 -90 147 -23 48
-45 87 -48 88 -3 0 -33 -28 -66 -63z m1552 -207 c42 -83 58 -164 52 -263 -2
-49 -10 -94 -16 -100 -8 -8 -11 0 -11 29 0 42 -32 182 -48 211 -7 12 -13 4
-27 -38 -9 -30 -35 -87 -56 -128 l-40 -74 38 -46 c74 -90 72 -85 38 -77 -16 4
-40 10 -52 13 -31 7 -30 -13 3 -61 l26 -38 -61 32 c-34 18 -94 64 -134 102
l-72 69 61 57 c79 73 159 175 219 280 26 45 49 82 51 82 2 0 15 -23 29 -50z
m-421 -736 l-7 -36 29 15 c64 33 119 31 79 -3 -24 -20 -18 -27 31 -35 25 -3
66 -15 92 -26 51 -22 49 -26 -30 -62 -37 -16 -38 -16 -35 6 2 18 -4 23 -33 25
-94 9 -196 -61 -224 -154 -6 -21 -4 -21 96 -17 119 5 157 15 199 50 16 14 32
23 35 20 13 -13 -41 -86 -75 -104 -20 -10 -38 -19 -41 -21 -2 -2 9 -14 25 -27
l30 -23 -29 -7 c-15 -4 -57 -5 -92 -2 -61 6 -64 5 -54 -13 14 -26 13 -30 -7
-30 -31 1 -99 37 -142 75 -33 30 -46 36 -67 31 l-26 -7 32 39 c17 22 49 89 71
148 47 127 59 148 102 174 44 27 49 25 41 -16z m56 -243 c-14 -28 -55 -27 -74
1 -17 24 -13 39 6 20 17 -17 43 -15 59 4 17 21 24 2 9 -25z"/>
<path d="M1283 1218 l-452 -453 -1 -130 c-1 -71 -1 -140 -1 -152 1 -16 50 27
207 183 l206 204 134 0 134 0 0 -55 0 -55 115 0 115 0 0 455 c0 250 -1 455 -3
455 -1 0 -206 -204 -454 -452z m227 -163 l0 -75 -75 0 c-41 0 -75 2 -75 4 0 5
141 146 146 146 2 0 4 -34 4 -75z"/>
<path d="M2922 1557 l-112 -112 0 -343 0 -342 120 0 120 0 0 455 c0 250 -3
455 -8 455 -4 0 -58 -51 -120 -113z"/>
<path d="M1800 1175 l0 -415 475 0 475 0 0 120 0 120 -356 0 -355 0 3 28 3 27
275 2 c151 1 283 2 293 3 15 0 17 12 17 115 l0 115 -292 2 -293 3 -3 28 -3 27
293 0 293 0 120 120 120 120 -533 0 -532 0 0 -415z"/>
<path d="M3110 1175 l0 -415 475 0 476 0 -3 118 -3 117 -351 3 c-324 2 -352 4
-356 20 -11 43 -10 43 285 42 155 -1 288 -1 295 0 9 0 12 30 12 115 l0 115
-293 0 c-162 0 -296 2 -299 5 -3 3 -3 17 0 30 l4 25 292 0 291 0 120 120 120
120 -533 0 -532 0 0 -415z"/>
</g>
</svg>
